<svg xmlns="http://www.w3.org/2000/svg" data-name="Layer 1" viewBox="0 0 32 32" id="eraser"><path fill="#e0e0e2" d="M12.869,29.978l2.42-2.41,14.85-14.85a2,2,0,0,0,0-2.83l-.71-.71-6.36-6.36-.706-.706a2,2,0,0,0-2.828,0L4.689,16.958l-2.83,2.83a2,2,0,0,0,0,2.83l7.37,7.36Z"></path><path fill="#ed4569" d="M12.62,2.629h11a2,2,0,0,1,2,2v21a0,0,0,0,1,0,0h-15a0,0,0,0,1,0,0v-21a2,2,0,0,1,2-2Z" transform="rotate(45 18.12 14.13)"></path><rect width="9" height="23" x="13.62" y="2.629" fill="#fddd56" transform="rotate(45 18.12 14.13)"></rect><path fill="#e0e0e2" d="M21.009,30.478H9.739a.5.5,0,1,1,0-1H21.009a.5.5,0,0,1,0,1Z"></path></svg>